# xmcd
#
# Track frame offsets: 
#        150
#        16452
#        37875
#        56771
#        70344
#        89172
#        110310
#        123321
#        147195
#        161097
#        180904
#        206280
#        220987
#        233841
#        248842
#
# Disc length: 3501 seconds
#
# Revision: 1
# Processed by: cddbd v1.5.2PL0 Copyright (c) Steve Scherf et al.
# Submitted via: ExactAudioCopy v0.99pb5
#
DISCID=d00dab0f
DTITLE=Cash Box Kings - I-94 Blues
DYEAR=2010
DGENRE=Blues
TTITLE0=Default Boogie
TTITLE1=St. Paul Wintertime Blues
TTITLE2=Hard Days Blues
TTITLE3=Mellow Chick Swing
TTITLE4=Country Boy
TTITLE5=Hittin' On My Baby
TTITLE6=Ain't No Fun When The Rabbit Got The Gun
TTITLE7=I-94 Blues
TTITLE8=You Don't Mess Around With Jim
TTITLE9=Fallin' Down
TTITLE10=Tried So Hard
TTITLE11=Southern Belle
TTITLE12=Quesadilla Boogie
TTITLE13=Second Chance
TTITLE14=Warm It Up To Me
EXTD=
EXTT0=
EXTT1=
EXTT2=
EXTT3=
EXTT4=
EXTT5=
EXTT6=
EXTT7=
EXTT8=
EXTT9=
EXTT10=
EXTT11=
EXTT12=
EXTT13=
EXTT14=
PLAYORDER=
